<?xml version="1.0" encoding="UTF-8"?>
<svg id="Layer_1" data-name="Layer 1" xmlns="http://www.w3.org/2000/svg" viewBox="0 0 354.2 128.1">
  <defs>
    <style>
      .cls-1 {
        fill: none;
        stroke: #edeeef;
        stroke-linecap: round;
        stroke-miterlimit: 10;
        stroke-width: .43px;
      }

      .cls-2 {
        fill: #231f20;
      }

      .cls-3 {
        fill: #ed1c24;
      }
    </style>
  </defs>
  <path class="cls-2" d="M75.43,57.75h-9.82v-3.01c0-1.41-.13-2.3-.38-2.69-.25-.38-.67-.58-1.26-.58-.64,0-1.12.26-1.44.78-.33.52-.49,1.31-.49,2.36,0,1.36.18,2.38.55,3.06.35.69,1.35,1.52,2.99,2.49,4.7,2.79,7.67,5.08,8.89,6.87,1.22,1.79,1.83,4.68,1.83,8.66,0,2.9-.34,5.03-1.02,6.4-.68,1.37-1.99,2.52-3.93,3.45-1.94.93-4.2,1.39-6.78,1.39-2.83,0-5.24-.54-7.24-1.61-2-1.07-3.31-2.44-3.93-4.09-.62-1.66-.93-4.01-.93-7.05v-2.66h9.82v4.95c0,1.52.14,2.5.41,2.94.28.44.77.65,1.47.65s1.23-.28,1.57-.83c.34-.55.51-1.37.51-2.46,0-2.39-.33-3.96-.98-4.69-.67-.74-2.32-1.97-4.95-3.69-2.63-1.74-4.37-3-5.22-3.79-.85-.79-1.56-1.87-2.12-3.26-.56-1.39-.84-3.16-.84-5.32,0-3.11.4-5.39,1.19-6.83.79-1.44,2.08-2.56,3.85-3.38,1.77-.81,3.92-1.22,6.43-1.22,2.74,0,5.08.44,7.02,1.33,1.93.89,3.21,2,3.84,3.35.63,1.35.94,3.64.94,6.87v1.61Z"/>
  <path class="cls-2" d="M131.85,45.44l-5.38,40.65h-16.05l-6.11-40.65h11.15c1.3,11.2,2.22,20.67,2.77,28.42.55-7.83,1.13-14.79,1.74-20.86l.73-7.56h11.15Z"/>
  <path class="cls-2" d="M149.44,45.44h17.62v8.13h-7.05v7.71h6.6v7.73h-6.6v8.94h7.76v8.13h-18.33v-40.65Z"/>
  <path class="cls-2" d="M186.24,45.01l4.96,8.57h-8.08v41.48c0,1.96-1.59,3.55-3.55,3.55h-.15c-1.96,0-3.55-1.59-3.55-3.55v-41.48h-6.69v-8.57h17.05Z"/>
  <path class="cls-2" d="M202.89,45.44h7.91c5.1,0,8.56.23,10.36.7,1.8.47,3.17,1.24,4.1,2.31.94,1.07,1.52,2.26,1.76,3.58.23,1.31.35,3.9.35,7.75v14.23c0,3.65-.17,6.09-.51,7.32-.34,1.23-.94,2.19-1.8,2.89s-1.91,1.18-3.16,1.46c-1.25.28-3.15.41-5.67.41h-13.33v-40.65ZM213.46,52.4v26.74c1.52,0,2.46-.31,2.81-.92.35-.61.53-2.27.53-4.98v-15.79c0-1.84-.06-3.02-.18-3.54-.12-.52-.39-.9-.8-1.14-.42-.24-1.21-.36-2.36-.36Z"/>
  <path class="cls-2" d="M255.2,69.24c0,4.08-.1,6.98-.29,8.67-.19,1.7-.8,3.25-1.81,4.66-1.01,1.41-2.38,2.49-4.1,3.24s-3.73,1.13-6.03,1.13-4.13-.36-5.86-1.07-3.13-1.78-4.18-3.2c-1.05-1.42-1.68-2.97-1.88-4.64-.2-1.67-.3-4.6-.3-8.79v-6.95c0-4.08.1-6.98.29-8.67.19-1.7.79-3.25,1.81-4.66s2.38-2.49,4.1-3.24,3.73-1.13,6.03-1.13c2.18,0,4.13.36,5.86,1.07,1.73.71,3.13,1.78,4.18,3.2,1.05,1.42,1.68,2.97,1.88,4.64.2,1.67.3,4.6.3,8.79v6.95ZM244.63,55.89c0-1.89-.1-3.1-.31-3.63-.21-.53-.64-.79-1.29-.79-.55,0-.97.21-1.27.64-.29.43-.44,1.69-.44,3.78v18.98c0,2.36.1,3.82.29,4.37.19.55.64.83,1.34.83s1.18-.32,1.38-.95c.2-.64.3-2.15.3-4.54v-18.68Z"/>
  <path class="cls-2" d="M269.98,45.44v32.51h6.43v8.13h-17v-40.65h10.57Z"/>
  <path class="cls-2" d="M289.53,45.44v32.51h6.43v8.13h-17v-40.65h10.57Z"/>
  <path class="cls-2" d="M320.56,57.75h-9.82v-3.01c0-1.41-.13-2.3-.38-2.69-.25-.38-.67-.58-1.26-.58-.64,0-1.12.26-1.44.78-.33.52-.49,1.31-.49,2.36,0,1.36.18,2.38.55,3.06.35.69,1.35,1.52,2.99,2.49,4.7,2.79,7.67,5.08,8.89,6.87,1.22,1.79,1.83,4.68,1.83,8.66,0,2.9-.34,5.03-1.02,6.4-.68,1.37-1.99,2.52-3.93,3.45-1.94.93-4.2,1.39-6.78,1.39-2.83,0-5.24-.54-7.24-1.61-2-1.07-3.31-2.44-3.93-4.09-.62-1.66-.93-4.01-.93-7.05v-2.66h9.82v4.95c0,1.52.14,2.5.41,2.94.28.44.77.65,1.47.65s1.23-.28,1.57-.83c.34-.55.51-1.37.51-2.46,0-2.39-.33-3.96-.98-4.69-.67-.74-2.32-1.97-4.95-3.69-2.63-1.74-4.37-3-5.22-3.79-.85-.79-1.56-1.87-2.12-3.26-.56-1.39-.84-3.16-.84-5.32,0-3.11.4-5.39,1.19-6.83.79-1.44,2.08-2.56,3.85-3.38,1.77-.81,3.92-1.22,6.43-1.22,2.74,0,5.08.44,7.02,1.33,1.93.89,3.21,2,3.84,3.35.63,1.35.94,3.64.94,6.87v1.61Z"/>
  <polygon class="cls-2" points="134.32 67.51 132.85 67.51 132.85 86.07 146.91 86.07 146.91 67.51 145.53 67.51 145.49 45.65 134.32 45.65 134.32 67.51"/>
  <g>
    <path class="cls-3" d="M144.36,44.78v-8.72s-.18-.74-.92-.86c-.46-.08-1.67-.06-2.54-.03s-1.7.25-2.44.68c-1.22.71-2.79,2.13-3.12,4.75v4.19h9.02Z"/>
    <path class="cls-1" d="M136.46,40.1s-.08-1.96,2.23-3.21"/>
  </g>
  <g>
    <path class="cls-2" d="M103.47,69.34c0,4.08-.1,6.98-.29,8.67-.19,1.7-.8,3.25-1.81,4.66-1.01,1.41-2.38,2.49-4.1,3.24s-3.73,1.13-6.03,1.13-4.13-.36-5.86-1.07-3.13-1.78-4.18-3.2c-1.05-1.42-1.68-2.97-1.88-4.64-.2-1.67-.3-4.6-.3-8.79v-6.95c0-4.08.1-6.98.29-8.67.19-1.7.79-3.25,1.81-4.66s2.38-2.49,4.1-3.24,3.73-1.13,6.03-1.13c2.18,0,4.13.36,5.86,1.07,1.73.71,3.13,1.78,4.18,3.2,1.05,1.42,1.68,2.97,1.88,4.64.2,1.67.3,4.6.3,8.79v6.95Z"/>
    <polygon class="cls-3" points="91.25 55.33 93.32 63.37 100.05 63.37 94.61 68.35 96.69 76.39 91.25 71.42 85.8 76.39 87.88 68.35 82.44 63.37 89.17 63.37 91.25 55.33"/>
  </g>
</svg>