<?xml version="1.0" encoding="UTF-8"?>
<svg xmlns="http://www.w3.org/2000/svg" viewBox="0 0 902.77 1299.761">
  <defs>
    <style>
      .n {
        fill: #721a09;
      }

      .o {
        fill: #171309;
      }

      .p {
        fill: #701b0c;
      }

      .q {
        fill: #edcf90;
      }

      .r {
        fill: #af2810;
      }
    </style>
  </defs>
  <g id="a" data-name="Layer 1">
    <rect id="b" data-name="backg" class="r" x=".69" width="901.39" height="1299.761"/>
  </g>
  <g id="c" data-name="Layer 2">
    <g id="d" data-name="redline">
      <polygon class="n" points="902.08 210.071 742.311 359.303 774.33 401.95 902.208 303.716 902.08 210.071"/>
      <polygon class="p" points="520.885 343.856 483.201 25.312 546.502 333.687 520.885 343.856"/>
      <path class="p" d="M.69,218.561v56.049l138.385,92.271,9.698-9.022s-16.742-4.787-10.738-25.413c.325-1.116-.223-2.313-1.125-3.047L.69,218.561Z"/>
    </g>
  </g>
  <g id="e" data-name="Layer 3">
    <g id="f" data-name="outlines">
      <path class="o" d="M0,401.004c.763-1.175,1.35-1.939,2.773-2.389,8.633-2.728,21.602-.106,30.653,1.464,1.333.231,1.529-.671,1.439,1.417-.211,4.931-5.77,4.65-8.223,7.319-1.171,1.274-1.034,3.268-3.131,4.879-4.652,3.574-14.488,2.551-19.944,1.142-6.641-1.715,1.272-4.436,3.981-5.813l10.33-3.3-17.879-3.777v-.941Z"/>
      <path class="o" d="M57.424,460.305l-23.89,2.003-9.05,2.708c-.428-1.848.95-2.233,1.963-3.205,7.489-7.18,28.392-17.842,30.976-1.506Z"/>
      <path class="o" d="M31.064,467.84h18.356c.661,0,5.367-2.331,6.6-2.803-3.738,10.007-18.753,11.339-24.957,2.803Z"/>
      <path class="o" d="M902.758,111.507l-3.297.908-189.675,221.726c2.022.312,37.052,13.866,34.825,15.518l-14.116-1.407c6.199,4.285,13.203,8.129,18.829,13.173,6.567,5.888,10.51,14.965,17.873,19.321-.658,2.453-5.213.636-3.362,3.813l26.882,40.897-8.452-3.296c2.337,3.69,3.16,8.259,5.466,11.94,6.987,11.156,18.758,15.425,24.147,30.451,6.5,18.126,7.099,41.354,11.816,60.206.762.775,15.059-13.99,15.553-15.093.501-1.119-.094-2.625-.501-3.733.472.151,1.942.299,1.892-.471.037-1.003-1.491-.173-1.892-.471-6.134-4.554-6.863-6.632-8.939-14.124-1.998-7.215-1.38-11.824-2.472-18.238-1.691-9.925-6.271-23.411-5.416-32.95.393-4.382,3.394-10.299,3.61-13.336.296-4.162-3.6-8.624-3.635-11.231-.034-2.566,2.656-7.346,3.673-9.883-3.425-2.412-15.146-7.543-15.045-11.817.086-3.639,17.515-10.713,19.681-15.162.384-2.272-10.779-7.852-6.054-18.234,3.388-7.443,15.515-13.518,23.062-15.53,19.825-5.285,37.045.109,55.545,7.066v38.595c-18.627-7.777-36.883-12.833-57.418-11.287l56.476,15.993c0,4.442.941,10.66.941,16.003-9.763,3.708-13.459-13.853-18.533-14.841-7.35-1.431-20.097,1.262-28.025,1.701-3.814.211-19.2-.991-20.763.888-.55.662-4.776,14.513-4.227,15.07,3.364.149,12.113,1.549,13.656,4.704,2.006,4.103-2.461,17.405-5.311,21.058-1.524,1.953-5.238,2.719-4.481,5.608,1.507,5.755,15.084.573,19.674,4.42-1.075,3.262-4.015,5.212-6.869,6.786-2.842,1.567-5.695-.581-5.371,5.434,7.458.155,11.801,6.389,17.881,9.436,1.038,1.232-1.492,2.806-2.346,2.806h-16.944c-.414,0-2.973,1.034-2.346,2.341,1.551,3.238,11.8,3.76,15.049,2.37l-5.38,6.411-7.788-.764c-.236,5.221-.558,13.296,6.066,14.164,17.418,2.284,26.251-1.666,40.688-10.24l15.37-10.517c0,3.754,0,7.542,0,11.296-11.551,9.959-24.336,18.313-37.557,25.869,2.001,4.12,4.952,8.069,5.602,12.675,3.086,2.691,27.192-15.201,31.955-16.893.001,12.223,0,24.489,0,36.713-3.07,1.387-13.979,11.614-16.338,11.152l-34.483-33.742-4.326,8.391-19.219,22.662c1.967,1.8,23.282-18.521,25.891-20.697l31.195,32.798c3.084.601,12.402-11.743,16.329-13.033l.951,742.724-1.363.967c-12.724-.016-25.463-.065-38.173-.026l-16.003-229.689h-39.537l11.292,114.839-36.713-1.882,9.418,116.732c-2.355.099-6.298,1.872-9.418.946l-7.07-84.758c-2.964.083-19.479,10.12-23.357,12.431-1.379.822-2.232,2.228-3.566,3.023-3.252,1.938-9.157,2.876-10.997,5.947-2.729,4.556-7.604,25.035-8.513,31.024-1.634,10.76-1.02,21.466-1.085,32.333-8.146.011-16.334-.031-24.48-.005-2.8-15.66-7.001-31.688-8.463-47.547-1.368-14.84.308-30.4-1.072-45.054-1.151-12.228-8.735-23.526-11.631-35.436l-61.219-4.772-1.312.17c-11.849,43.411-15.272,88.654-24.558,132.64-2.812-.05-5.656.042-8.468-.005-.56-7.037,10.683-53.313,9.016-55.59-.655-.895-1.876-.925-2.89-.963-3.356-.126-30.218,8.676-32.232,10.687-2.299,2.296-8.912,16.783-10.776,20.759-3.802,8.11-7.091,16.632-10.317,24.985-11.233.275-22.523.077-33.761.127.605-16.186-1.719-32.325-.986-48.524,1.42-31.384,11.247-61.828,19.811-91.731l-47.529-8.515c-1.664.068-2.493-.693-2.373,1.445.504,9.037,2.048,18.277,2.827,27.314.24,2.781-.408,5.987-.07,8.529.241,1.806,1.96,1.266,1.982,1.886.064,1.773-1.891,5.38-.957,7.937l-90.241,5.775-19.901,95.885c-2.5-.037-5.735.346-8.034.007-1.288-.19-1.596.535-1.412-1.423l16.83-80.041-6.946-2.16-48.204,13.259c-10.007,22.451-15.695,46.55-22.019,70.236l-21.526.123c-1.48-4.613-1.164-10.664-.986-15.577.7-19.369,2.298-38.925,4.868-58.202.905-6.792,2.516-13.599,3.652-20.349-4.263.123-11.773-2.191-15.547-1.926-1.158.081-1.819.496-2.18,1.616-9.342,30.438-17.348,62.205-29.961,91.475-.569,1.321-.666,2.285-2.207,2.962-29.479.065-59.008.013-88.487,0,.194-26.319,5.048-54.049,12.506-79.275,1.545-5.226,10.156-24.874,9.212-28.417l-82.778-15.75,10.227-84.596h-15.532c-.293,0-1.332-1.297-2.347-.938l-14.127,208.976c-21.01-.027-42.065.016-63.075.005l.005-786.031c1.918,2.518,4.082,3.23,6.071,4.711,2.992,2.228,16.703,14.514,19.203,13.047.72-.423,4.622-9.19,5.831-10.726L.005,493.695v-20.71c15.748,8.797,24.084,19.349,43.806,17.92,12.242-.887,14.152-3.843,16.746-15.26,2.462-10.838,8.23-38.216,8.226-48.314-.002-4.799-1.675-8.962-1.95-13.654-3.889,1.871-10.047,1.026-13.501,2.026-1.076.312-1.414.869-1.373,1.99.254,6.854,8.473,17.866,3.653,23.828-1.619,2.002-7.007,2.34-8.541,3.693-.595.525-2.086,7.943-4.701,5.178-.571-.604,1.896-6.894-4.438-8.274-1.482-.323-7.888.271-7.785-1.609.184-3.379,8.15-3.658,10.764-3.252,1.44.224,2.516,1.742,3.798,1.798,1.264.056,5.553-2.095,5.995-3.412,1.685-5.017-7.466-25.974-7.442-32.76.68-4.533,15.713-5.202,19.808-5.211.592-.528-5.986-12.457-4.703-15.061-10.041,1.35-19.624,5.586-29.773,6.473-9.45.825-19.032-.275-28.59,2.004v-20.71c14.088-8.739,30.473-13.161,47.077-13.65-15.818-5.917-32.782,2.354-47.077,8.943v-39.537c4.044.407,10.108-2.824,13.65-2.824h22.592c2.787,0,20.416,5.738,23.709,7.356,6.553,3.22,17.033,10.902,15.376,19.294-.149.754-1.602.718-1.892,1.306-.624,1.265-.734,2.764-1.51,3.958-.933,1.435-6.744,7.618-6.027,8.553,7.022,1.105,12.008,6.117,17.882,9.446.588.82-8.569,10.565-9.881,11.372-1.482.911-2.964.082-3.33.354-2.139,1.59.753,11.09.962,14.152.54,7.902,1.332,15.73,1.879,23.537,1.055,15.049-3.552,26.507-6.319,40.718-2.292,11.773-.109,28.742-12.475,34.575l10.326,7.059c5.037-17.529,9.845-35.383,15.559-52.698,1.392-4.219,4.792-15.324,7.651-17.765,4.18-3.569,25.96-13.136,27.168-15.192.833-1.416,2.024-14.211,1.396-15.068-1.094.117-5.301,3.228-5.63.955,2.419-.131,2.913-4.195,4.307-6.526,3.006-5.029,6.684-10.427,10.738-14.68,1.326-3.007-6.107.954-6.577-.924,5.397-5.37,10.368-11.075,16.935-15.07l-5.643-.476c3.396-4.489,8.719-7.698,14.051-9.497-2.406-8.169-4.986-27.945,2.947-33.271,6.044-4.058,7.49,8.173,14.137,2.835,7.969-6.4-2.995-16.042-4.551-22.882-4.929-21.681,12.967-26.161,19.723-41.013,4.514-9.924.674-10.038-.166-19.025-1.515-16.211,3.787-22.581,14.906-33.068L79.087,29.61l121.437,161.904c1.537-.391,1.591-2.747,2.804-4.238,3.547-4.359,9.522-9.552,14.812-11.544,2.899-1.091,8.897-1.597,10.581-2.598,1.136-.675,2.527-4.18,3.818-5.595,18.129-19.864,61.01-23.918,79.031-1.884,2.914,3.563,6.484,11.869,9.455,14.078,4.569,3.396,12.674,2.996,19.253,8.046,15.182,11.653,14.004,27.195,17.719,43.469,2.879,12.613,16.259,26.602,22.473,38.715,9.133,17.804,2.368,24.655,1.726,41.601-.463,12.233,9.243,19.174,10.34,31.052.752,8.146-1.617,14.746-3.619,22.396l21.508,24.676-.002,1.399-3.751-1.416c7.575,8.191,13.432,18.71,16.008,29.659l28.253-9.957-80.027-294.097,123.324,241.922c5.991-3.547,11.825-9.104,18.809-10.365-2.164-3.26-8.438-3.688-11.777-1.894.479-2.761,5.711-4.097,8.217-4.952,5.286-1.804,11.329-2.877,16.734-4.451-.951-2.211-6.815.231-7.52-2.804,8.699-2.079,17.411-3.182,26.348-3.785-.173-1.394-3.34-2.196-4.502-2.545-2.527-.76-5.059-1.387-7.731-1.22,3.989-4.787,11.763-2.434,17.118-1.576,9.499,1.521,18.653,4.889,28.048,6.772-3.707-3.162-3.455-11.636-5.549-14.921-.41-.644-8.984-4.079-12.317-8.623-6.893-9.4-11.4-34.668-4.975-45.001-4.83-18.89-12.492-39.703-2.102-58.091,3.876-6.86,23.689-28.531,30.37-31.759,5.373-2.596,13.115-3.08,19.067-3.055-1.695,1.628-3.549,5.044-5.694,6.072-3.403,1.632-7.812,1.225-12.328,3.676-1.812.983-11.738,9.641-12.506,11.027-3.589,6.474-.153,17.321-.531,24.405,2.247.518,1.523-.384,2.096-1.224,4.502-6.606,12.439-13.712,20.491-14.764-7.166,9.455-14.123,17.252-19.568,27.968-.58,1.142-1.737,1.533-.228,2.643,14.173.604,29.573-2.848,43.307,1.879,4.997,1.72,9.093,5.764,14.573,6.149,8.05.566,8.364-3.044,14.36-5.502,15.487-6.349,38.611-2.169,54.4,1.684,2.839,9.999,7.984,19.164,15.532,26.358-.085,1.123.994,3.302.981,5.13-.074,10.542-.147,21.159-1.921,31.573h1.864S902.758,12.666,902.758,12.666c.031,32.931-.013,65.91,0,98.842ZM324.766,229.17c-1.019-7.551-8.156-11.427-11.656-17.986-4.649-8.711-5.679-25.202-17.466-27.712-7.273-1.549-13.051,1.472-19.816,3.355l13.588,1.926c20.963,5.321,11.323,38.486,35.351,40.417ZM306.878,230.129c-3.73-1.817-10.499-4.074-13.237-7.007-4.945-5.296-7.841-18.038-14.667-22.046-6.626-3.891-12.895-1.988-19.405-3.187-9.666-1.781-14.111-10.045-25.086-2.049-10.202,7.433-20.783,20.497-20.824,33.805-.006,1.995-.062,1.194,1.421,1.425,3.158.493,5.781-.928,8.393-.858,14.081.38,20.997,6.799,32.604,10.701,10.075,3.387,15.364-3.987,25.19-6.762,8.154-2.303,14.954-2.694,23.283-3.09,1.061-.051,2.582.609,2.329-.932ZM210.858,261.181c-.061-3.996-7.866-22.75-11.763-22.569-1.244.058-1.2,1.718-.998,2.837,1.338,7.404,7.594,14.522,12.761,19.732ZM314.415,239.531c-1.478.423-4.127.318-3.777,2.336.076.437,3.432,7.754,3.789,8.016.997.731,1.373-.081,1.87-.939,1.579-2.722.155-7.429,1.882-10.346-1.534-.416-2.571.59-3.765.932ZM677.427,243.62c.51.852,2.151,7.083,3.659,4.399.542-.964,1.799-8.869,1.387-9.429l-7.52,1.895c-.142,1.598,2.194,2.665,2.475,3.135ZM572.345,255.533c.56,15.319,6.041,24.633,9.88,38.6,5.216,18.978,2.526,29.837,19.29,43.78,21.693,18.042,51.876,14.102,72-4.273,6.979-6.372,16.418-19.707,17.449-29.152,1.824.172,1.194,3.277,2.796,4.257,6.302,3.854,15.066-10.626,16.32-15.729.998-4.059,3.439-22.972-.522-24.626-2.026-.846-3.945-.844-5.772.446l-5.289,6.459-2.845-29.175c-2.959,3.484-3.099,8.679-5.145,13.202-4.192,9.265-9.146,15.09-19.758,16.014-13.399,1.167-24.091-1.283-30.049-14.261-1.342-2.923-2.73-11.031-3.842-12.155-2.012-2.035-6.569-.828-7.825,1.643-.865,1.701-4.938,18.368-4.984,20.507-.148,6.98,2.539,5.258,4.673,8.565,6.139,9.512-11.547,11.212-12.912,2.528-.618-3.929,4.434-8.341,3.593-12.508-4.053,1.878-7.143,4.305-11.71,4.754-11.567,1.137-23.796.539-29.427-11.146-2.527-5.244-2.957-13.383-4.98-18.083-.454-1.055-.471-1.162-1.878-.937.468,3.56-1.134,8.426.936,11.291ZM205.223,269.659c11.759,29.278,4.057,63.646,37.94,79.249,21.714,9.999,49.801.721,66.988-14.329,8.891-7.786,10.983-12.728,13.4-24.254,4.166-19.87,5.442-41.503,1.209-61.375l-4.792,13.548c-4.919,8.913-10.467,14.527-21.096,15.617-11.252,1.154-17.952.188-24.773-9.094-2.606-3.547-7.002-14.856-9.051-16.4-2.688-2.025-6.852.292-8.036,3.403-.936,2.46-2.993,14.251-2.924,16.922.169,6.557,5.959,10.099,5.588,12.946-.482,3.699-4.495,5.91-7.902,6.313-.385.046-.3-1.464-1.14-1.773-1.105-.407-2.535-.223-3.763-.762-4.919-2.162-.244-12.478-1.181-13.423-1.757-1.771-4.954,2.581-5.419,2.754-3.147,1.166-13.175.662-16.641.009-6.257-1.178-12.705-6.761-18.408-9.352ZM366.185,305.42c3.082-2.999-9.76-23.811-11.321-27.736-2.464-6.192-3.037-12.853-4.202-19.323-7.032,9.16-4.436,18.361.649,27.582,1.218,2.209,11.18,18.106,12.009,18.855.852.77,2.524.951,2.864.621ZM200.711,314.642c1.164.562,5.733-1.01,6.772-1.771,7.21-5.288-11.964-19.024-11.768-4.105.04,3.039,1.665,2.7,4.096,4.221.556.348.674,1.546.9,1.655ZM667.431,438.15c-.644-17.177,2.397-34.144,3.854-51.2l9.306-53.284c-18.851,20.369-38.874,43.858-64.961,55.052-5.327,2.286-12.205,5.229-17.869,5.203,3.376,7.49,6.16,15.245,9.865,22.602,3.945,7.836,13.103,20.202,15.539,27.768.154.477.256,1.537-.453,1.39l-8.481-7.521c-.71-.147-.603.906-.452,1.389.897,2.863,14.027,26.694,15.62,27.687,4.09,2.548,21.629,1.783,27.236,1.946,5.317.154,10.679,2.328,16.332-.061-.01-12.776,3.312-24.978,1.91-37.948l-2.736-7.13c-.958,3.331-1.528,6.819-2.587,10.127-.365,1.142-.706,3.977-2.122,3.981ZM315.356,338.381l-10.836,10.335c-10.829,14.234-24.128,26.377-37.644,37.664-3.915,3.269-7.814,6.64-11.647,10.009-.447,2.275,13.675,20.254,14.925,25.315.128.519.274,1.53-.448,1.384-2.643-2.995-4.903-6.356-7.998-8.945-.746-.624-1.886-2.47-2.827-.938,16.602,21.15,30.885,44.19,44.714,67.306,2.544-16.895.069-33.839-.485-50.828-4.392,3.117-2.583,11.038-7.512,14.12-.544-10.381.354-20.134,2.15-30.317,3.479-19.729,8.855-42.212,13.341-61.967,1.019-4.49,2.605-8.868,4.268-13.137ZM739.895,367.554c-.53-2.426-4.217-4.996-6.135-6.564-11.916-9.74-28.311-19.042-43.679-20.663l-6.648,46.995,11.277-17.885c-2.571,13.656-1.805,27.571-1.864,41.419l10.336-17.885-5.629,43.297,11.299-15.991c1.256-.235.993.324.924,1.381-1.111,17.162-17.197,37.039-19.774,51.792-.095.544-.244,1.55.477,1.413l11.762-10.35-19.769,44.709.474,1.411,8.483-6.579c.71-.147.605.909.453,1.389-5.054,15.899-14.956,31.28-20.635,47.144,1.849,27.43,4.685,54.756,3.714,82.31,3.117-3.159,7.255-5.975,10.383-8.905,13.871-12.992,25.705-23.335,36.124-40.125,2.749-4.429,5.584-9.01,7.152-14.034,1.608-.242,1.002,2.239.915,3.266-.33,3.897-1.976,7.826-2.578,11.557-.161.997-.995,3.275.698,3.049,4.67-8.369,9.852-16.387,14-25.071,1.239-2.594,5.233-14.796,5.791-15.401.4-.433,2.572-.234,1.873,1.395l-.012,9.895c8.334-15.76,12.035-33.33,15.083-50.821l1.208,8.663,1.596,4.505c4.499-17.77,6.321-36.407,3.785-54.592,2.874,3.393,3.407,8.734,5.389,12.999.616,1.325-.566,2.569,2.128,2.057.658-18.303-4.757-36.287-11.308-53.166l5.205,3.263,4.7,4.718c.72.146.581-.872.449-1.385-2.7-10.453-13.585-28.412-19.925-37.502-1.34-1.921-5.895-6.605-6.408-7.717-.228-.495-.178-1.597.457-1.394l8.948,3.75c-7.677-13.444-21.556-21.486-33.881-30.126-.231-1.781,1.76-.558,2.63-.278,3.537,1.139,6.972,2.952,10.533,4.055ZM383.134,537.938v17.886l4.484-9.165c4.961-15.449,8.427-31.384,11.528-47.311,1.636-.222.893,2.138.935,3.276.093,2.485-.149,4.941.11,7.431.1.961.375,4.425,1.759,4.343,3.031-14.302,5.731-28.555,4.727-43.292,1.354-.222,1.314,1.659,1.584,2.629,1.167,4.193,1.292,10.346,2.878,14.075.57,1.34.2,1.439,2.114,1.173,1.149-17.811-2.121-35.206-4.697-52.706,1.611-1.808,6.946,7.863,9.398,6.125-1.525-4.396-2.972-8.783-4.83-13.056-3.004-6.907-8.49-14.505-11.152-20.859-.232-.554-.173-1.589.454-1.391l7.057,4.7c1.363-1.705-7.683-13.413-8.799-15.666l-19.428-18.697c1.489-1.051,4.233-.476,3.755-3.273-7.753-3.685-14.135-9.9-22.58-12.266,1.67-2.391,6.68-2.444,9.402-2.822l-6.114-1.873h-20.239l3.764-4.697c-3.875-1.293-22.968.474-24.946,2.813-3.595,4.25-4.74,26.777-8,32.939,2.027.469,2.14-1.028,2.986-2.182,3.107-4.243,5.896-8.655,10.183-11.929l-4.694,32.94,2.327-1.866,8.959-13.182-4.696,40.465c2.019,1.996,8.121-10.642,9.885-11.285-.236,17.595-4.266,35.431-7.997,52.71,5.408-5.249,7.17-13.106,13.161-17.884l-14.12,52.236,12.237-9.875-12.256,47.566c9.168,20.086,8.291,42.796,10.387,64.449.658.758,4.94-2.845,5.646-3.558,17.128-17.29,25.959-43.752,33.225-66.297.321-.996.234-2.838,1.602-2.624ZM525.277,499.343v-15.062l18.841,44.24,1.867-.006-2.357-18.813c7.094,15.698,14.491,31.245,24.004,45.661l-1.41-16.48,29.174,46.134,1.896.938c-1.288-4.994-3.608-10.535-4.169-15.627-.205-1.857.163-1.356,1.8-1.323l28.236,41.906c4.493,2.966,2.982-5.519,1.888-8.479-.106-.826,1.759-.576,1.878-.475.461.391,5.512,8.632,6.484,10.21,12.173,19.754,21.81,45.009,25.549,67.91l1.918-11.717c-.228-41.682,2.836-85.653-14.94-124.469-7.411-16.182-18.94-28.095-29.328-42.205l15.519,8.947c.71.148.599-.903.45-1.387-1.522-4.946-13.378-20.996-17.105-26.202-2.763-3.861-11.582-13.261-12.823-16.36-.253-.632-.619-2.095.285-2.166l10.364,10.346c.709.147.607-.914.453-1.39-2.195-6.796-14.403-22.127-18.667-29.343-2.206-3.733-4.384-8.466-6.374-12.46-.795-1.596-1.971-3.046-3.182-4.346,3.607-.84,8.157,4.101,10.836,5.172,1.185.474,1.747-.181,1.386-1.386l-21.635-38.617c2.507-1.001,5.85,2.603,8.001,3.295.699.151.633-.967.454-1.391-1.896-4.489-12.601-20.072-16.013-24.47-1.57-2.024-7.819-9.117-9.676-10.092-4.537-2.381-13.394-3.361-18.543-3.569.915,1.685,10.705,10.894,9.404,12.228-8.574-5.198-18.877-2.082-28.226-1.878-.526,2.251.402,1.524,1.225,2.094,3.035,2.104,7.713,3.922,10.778,6.085.913.645,1.631.06,1.176,2.166-7.581,1.653-15.541,4.925-21.652,9.894,4.214.893,8.511.075,12.743,1.381,4.124,1.273-2.6,3.335-4.583,4.898-3.861,3.043-15.304,16.745-16.623,21.033-1.371,4.456,7.42-3.799,8.453-1.907-6.959,13.742-11.886,32.203-6.709,47.199.424,1.228.262,2.874,1.999,3.169.098-4.554.395-9.891,1.224-14.344.293-1.571.119-4.211,2.548-3.535-.713,13.413,2.677,27.251,6.577,40.016l6.605,14.576ZM160.975,375.085v16.474c0,1.867,4.758,13.539,3.76,14.587-1.809-.116-3.718-.928-5.33-1.721-1.851-.911-8.525-7.194-7.763-1.662,1.683,12.203,9.76,20.428,16.863,29.736-6.022-.495-11.886-2.37-17.395-4.701-3.894.725,3.703,10.242,5.133,11.795,6.167,6.694,15.042,11.114,20.733,18.323-7.398-.72-14.59-4.464-21.603-6.163-.946-.229-3.079-1.237-2.864.513l44.229,29.206c.179,1.616-3.255,1.034-4.263.967-4.761-.316-9.725-1.945-14.557-1.91,5.55,6.781,13.945,11.198,21.361,15.813,8.245,5.13,17.126,9.926,25.699,14.313l-9.916.969-10.777-1.921v1.864s42.347,28.734,42.347,28.734c-5.671,1.781-10.954-2.375-16.488-3.282-1.832,1.919.793,1.867,1.869,2.792,26.302,22.593,49.283,38.75,68.671,68.813,4.738,7.347,10.886,23.19,15.079,28.223.598.718,15.03,11.043,15.585,10.292-.011-22.647-.528-45.736-6.105-67.781-3.142-12.419-8.415-23.305-14.434-34.516-.437-.814-6.271-9.36-4.404-8.775,2.593,1.093,5.842,4.335,8.471,4.717,1.444.21,1.643.035,1.406-1.41-7.684-14.041-17.899-26.391-29.161-37.685-1.352-3.28,8.272.855,9.113,1.247,3.64,1.693,10.852,8.574,4.848-2.025-6.459-11.404-21.885-24.565-30.976-34.918-.305-.348-9.552-7.354-4.235-6.129,4.651,1.071,11.094,4.81,15.128,7.473l.457-1.394c-11.862-15.475-24.363-29.029-37.335-43.559-.642-.719-1.102-1.308-2.186-1.178-.242-1.648,1.001-.755,1.921-.52,1.905.486,4.512,2.406,6.538,1.006-7.541-10.853-16.973-19.952-26.334-29.196l7.507,1.897c-5.357-5.818-12.883-9.132-19.044-13.644-1.547-1.133-2.224-4.062-5.42-3.787-.256-1.559,2.289-1.014,3.321-.972,2.529.103,4.591.716,7.026.975-8.114-7.239-20.193-9.449-27.774-17.872-2.985,6.034-.527,12.542-.476,18.822l-4.854-5.962-5.481-11.918c-3.473,9.644-5.232,18.964-2.839,29.171-1.596.401-1.885-.63-2.835-1.392-3.902-3.128-7.253-10.064-12.222-12.724ZM67.782,402.393c-.759-.604-5.99,2.239-7.179,2.738-1.267.532-2.773-.947-2.229,1.955,6.018-.37,8.65,2.347,9.408-4.693ZM341.734,1060.787,337.939,1100.384c-2.288,30.602-5.808,61.147-7.525,91.796,23.749.2,47.326,2.854,71.115,1.917,20.164-.795,40.281-3.893,60.218-6.62,1.696-.232,3.472.096,5.168-.013-.705-7.983-2.15-16.022-2.82-24.005-7.622-90.882-13.321-181.945-18.871-272.947-4.137-67.825-9.319-110.785-31.951-175.146-4.206-11.962-13.719-29.167-14.174-41.366-.545-14.621,17.846-46.394,24.012-61.725,13.867-34.479,13.111-64.516,12.782-101.208-.014-1.58.163-3.409-.964-4.675,1.466-.657,2.234,2.111,2.595,3.044,12.255,31.652,15.943,66.637,17.191,100.477.657,17.797.003,35.811-1.731,53.472.689,3.469,13.236,12.718,16.184,15.854,4.992,5.312,8.838,11.915,13.74,17.329.368,1.981-.747,1.543-2.154,1.216-3.762-.875-7.722-2.689-11.607-3.462-6.991-1.39-14.011-2.024-21.055-2.939l34.82,33.418c-9.713-.001-19.562-3.441-29.176-5.174l16.917,77.684c.143,2.861-.993.632-1.696-.192-1.033-1.21-9.92-13.256-11.453-11.601,6.707,23.307,9.028,47.322,6.585,71.537h24.946c1.592,0,10.255,2.113,12.286,2.775,1.884.614,9.525,4.402,10.341,5.685,1.922,3.021-3.638,5.034-4.121,8.21-.886,5.83,7.657,1.285,8.841-2.501,2.295-7.339-1.512-25.085-2.397-33.472-9.128-86.469-31.576-169.267-45.346-254.944-6.223-38.718-11.755-90.357-26.186-126.312-2.766-6.892-5.183-13.916-13.184-15.517,3.967,30.556-3.545,61.338-15.083,89.421l-1.86-10.342c-2.95,18.63-11.3,35.965-21.195,51.764l-.921-3.746c-7.39,17.21-19.861,30.946-29.698,46.549-5.602,8.886-18.81,31.453-17.619,41.201.387,3.17,2.524,6.684,2.632,9.688.149,4.171-2.791,8.399-2.79,12.099.008,22.227,4.569,48.693,5.608,71.618,4.484,99.004-2.019,198.74-5.667,297.435M280.997,630.19c4.488-.606,11.184,0,16.003,0,.073,0,2.251,2.263,1.398-.452-1.652-5.261-7.439-11.172-10.816-15.546-.53,1.923.497,3.575.414,5.957-.029.84-.533,6.054-2.279,5.327-3.919-1.634-13.943-17.084-17.903-20.697-.681,2.208.969,4.773,1.318,7.16.13.886.616,3.078-.849,1.789l-40.947-52.251c-.404,3.099,1.658,6.107,2.246,9.065.297,1.496.219,1.418-1.288,1.278l-32.964-35.759c.061,3.356,2.049,7.006,2.882,10.31.232.919,1.141,2.156-.514,1.915l-41.905-43.289c-.542,3.87,2.607,7.321,3.252,10.876.248,1.369.586,2.691-1.352,2.29-9.444-9.25-22.655-18.215-27.558-30.811-3.731-9.587-5.272-20.212-9.603-29.934-1.983-4.453-6.036-8.487-7.105-13.623-1.776.039-7.09,7.632-7.039,9.788,5.139,15.928,10.328,32.065,12.633,48.69-14.152,27.923-27.949,56.199-43.703,83.211.94,1.528,2.08-.314,2.825-.94,9.817-8.246,16.255-20.241,24.395-29.266,1.938-2.149,5.413-4.109,7.137-6.979.722-.146.577.867.448,1.385-1.415,5.671-9.485,20.055-12.67,25.93-10.592,19.534-23.511,35.764-37.444,52.931l-14.821,22.347c16.54-3.901,32.637-10.722,49.891-11.277-1.192,4.7-5.606,5.356-8.498,7.966-5.947,5.369-10.599,12.023-15.973,17.916,5.042.162,22.734,3.303,25.896.48.945-.844,1.903-4.422,3.283-6.13,4.111-5.086,14.218-13.879,20.066-16.647,2.426-1.148,9.662-2.322,10.012-2.705.128-.14.527-3.49-.561-3.748-17.022-3.998-34.29-6.388-51.659-8.435-1.325-.156-2.715-.536-1.392-1.871.459-.463,10.279-5.159,11.725-5.701,17.034-6.389,32.142-3.929,48.505,2.866,5.886-23.161,16.796-46.434,12.939-70.822-1.429-9.033-4.646-18.037-7.108-26.794-.228-.81-1.958-2.709.315-3.107,1.472-.258,3.728,3.675,4.589,4.805,17.776,23.324,31.517,49.154,50.492,72.825,9.464,11.807,19.75,23.151,29.639,34.378,2.408.369.877-1.064.448-2.335-3.505-10.368-8.607-20.273-12.218-30.605,12.584,12.599,26.741,25.835,33.9,42.36,9.148-4.312,21.464-12.762,31.515-14.12ZM858.51,713.024c.589-.687-.803-11.574-1.175-13.407-4.026-19.874-12.411-41.009-17.014-61.118-7.214-31.521-13.745-63.177-21.084-94.702-4.652-19.984-10.979-71.486-25.454-83.739-.546-.462.251-2.306-1.649-.267-.361,16.533-2.071,32.875-4.456,49.2l-2.578,6.349-2.825-9.403c-2.027,16.273-1.903,34.231-9.898,48.941l-2.337-7.519-21.677,49.881c-3.994.83.321-7.573-4.711-4.251-1.102.728-9.114,13.365-11.304,15.995-5.117,6.144-10.287,10.523-16.451,15.555-.82-2.337.008-4.049-3.292-2.351-3.265,1.68-13.011,13.476-16.929,16.96-4.47,3.975-20.205,14.377-21.436,19.042-5.726,77.409.537,155.707-2.067,233.27-.071,2.117-.963,3.978-.981,6.07,3.841-1.23,10.873,2.602,13.09-.556.915-5.144,10.663-23.019,9.048-26.688-.576-1.309-2.563-2.077-3.119-4.483-3.706-16.056,13.494-50.831,23.868-63.283,2.234-2.681,8.858-6.784,9.347-7.597,1.162-1.932.177-6.212.59-8.824,2.915-18.47,25.049-49.465,32.85-69.757,10.165-26.441,14.207-54.128,19.987-81.678,6.34-30.217,13.92-60.186,16.719-91.07l9.877,38.586c6.202,18.961,12.188,37.996,18.34,56.973.155.477.256,1.537-.453,1.389-2.112-2.638-5.295-3.331-7.98-5.218-1.251-.879-1.744-2.837-2.105-3.039-3.722-2.083-3.871.568-3.154,3.61.735,3.12,4.837,15.745,6.087,18.388,1.391,2.94,18.725,14.301,22.734,18.685,1.903,2.081,2.58,5.064,4.652,7.105-17.289-1.824-35.365-4.815-51.834,2.303-1.028.762-4.665,5.339-3.701,6.174,8.424.581,17.547,2.063,25.376,5.22,1.115.45,3.776.973,3.795,2.304-3.731,1.529-7.674.562-11.498,1.215-21.821,3.725-31.132,18.008-41.372,35.819-6.508,11.321-12.266,23.584-17.718,35.458,26.015-7.288,40.247,4.354,50.99,26.669l17.71,48.636c5.218-15.194,10.536-30.391,16.25-45.413,6.857-18.025,21.347-45.285,19.524-64.239-1.294-13.456-9.874-21.775-15.668-32.338-2.401-4.377-1.213-5.579,3.144-3.144,2.145,1.199,21.089,15.282,21.942,14.289ZM48.95,511.585c-6.023.21-7.144,16.018-6.146,19.787.507,1.914,2.512,4.923,3.802,6.562,2.723-8.386.688-17.648,2.344-26.349ZM880.88,612.071c3.396-3.451.469-11.344-5.39-8.719-7.442,3.334.717,13.468,5.39,8.719ZM543.163,780.335c-.534,4.727,0,11.038,0,16.003,0,.31-2.536,4.978.459,2.342,2.311-4.265,4.515-8.504,5.209-13.38l6.569-7.309c-4.466,19.897-6.098,40.706-5.642,61.174,2.897.481,1.47-.793,1.884-2.303,1.257-4.576,2.856-9.038,3.769-13.69,1.219-.26,1.514,1.756,1.635,2.576,2.816,19.108,3.376,38.799,6.019,58.002,10.71,77.819,30.804,153.919,48.347,230.292l3.284,8.468c6.526-47.579,13.774-95.072,19.644-142.743,9.16-74.388,17.012-149.804,19.005-224.804.356-13.393,1.168-31.132-2.407-43.808-4.816-17.077-28.442-42.742-40.914-56.045-7.178-7.656-14.979-14.902-22.608-22.096l15.045,71.535-29.165-29.175c6.69,24.674-9.979,46.508-18.618,68.465-3.69,9.38-10.439,26.975-11.514,36.495ZM221.22,654.678c-11.511-3.237-22.617-9.368-34.104-12.495-35.591-9.691-61.409,14.79-77.134,43.856-12.905,23.853-19.875,51.297-24.844,77.846l6.18.922c2.078-22.063,8.164-44.673,17.72-64.65,1.957-4.091,11.363-21.628,14.947-22.702,4.467-1.338,17.998,1.603,22.866,3.092-1.759,2.899-16.557,11.675-16.001,14.102.293,1.278,19.844,10.154,22.882,11.973,4.262,2.552,8.036,5.736,11.946,8.764l-15.051,5.162c9.431,3.473,16.55,10.575,25.403,15.091-.256,4.743-5.52,2.365-8.237,2.091-1.395-.141-2.453-.986-2.104,1.173,11.648,13.114,21.302,27.397,36.175,37.271.827.713,1.363,1.169,2.441.455.965-.639,5.981-10.432,6.609-12.248.587-1.697,3.227-13.165,2.77-13.694-5.173-.472-8.812,12.708-10.002,13.108-3.566,1.197-7.789-2.506-9.296-5.576-9.211-18.77-6.758-71.212,5.226-88.7,1.886-2.752,9.665-11.855,12.707-12.007,2.568-.128,8.183,2.519,8.899-2.834ZM328.527,672.55c-.763-2.284-.619-5.531-1.362-7.571-1.852-5.087-21.364-16.15-26.85-19.266,9.55,8.82,19.692,16.978,28.213,26.837ZM315.356,685.72c-4.269-5.684-8.27-11.744-14.111-15.993l10.803,14.133,3.307,1.861ZM881.302,676.433c0-2.576-2.088-4.663-4.663-4.663s-4.663,2.088-4.663,4.663,2.088,4.663,4.663,4.663,4.663-2.088,4.663-4.663ZM295.579,698.908c-1.677-4.591-4.641-10.088-8.454-13.178,1.677,4.591,4.641,10.088,8.454,13.178ZM272.044,698.907c-8.79,3.789-18.004,6.505-27.751,5.641-4.182-.371-7.515-2.992-11.783-.92,2.267,18.272,11.285,38.637,10.353,56.93-.306,6.015-1.898,15.33-3.07,21.405-.464,2.402-3.783,17.937-4.46,18.613-2.022,2.022-3.004-4.986-4.688-4.703,1.897,43.631,8.216,86.534,6.619,130.411-.239,6.569-1.698,13.662-1.109,20.543l-1.438,1.386-28.878,8.776-1.403,1.422c-23.842,69.986-48.93,139.559-70.763,210.223l58.957,11.185,96.362,10.473c13.474-77.526,30.854-154.637,39.538-232.987,7.89-71.187,10.005-150.605,5.643-222.144-.697-11.435-2.375-22.913-2.81-34.374-7.223-1.236-10.769,5.148-17.634,7.322-3.543,1.122-6.432.595-9.012,1.343-1.509.438-2.78,2.848-4.692,3.781-6.774,3.305-13.425,3.106-19.074-2.041-2.746-2.503-8.116-8.845-8.909-12.284ZM190.162,784.567l-145.91-21.646-30.032,128.877c52.901,12.434,106.218,23.215,159.506,33.988l45.576-6.636-9.394-128.212c-1.184-2.625-12.097-3.407-15.038-4.485l-.944,6.584c2.03.141,11.757-.7,12.275,1.571l6.605,120.232-40.529,6.222,17.885-136.495ZM876.073,765.951c-6.183.567-6.334,10.687-1.035,11.138,6.211.528,7.457-11.727,1.035-11.138ZM712.596,861.757c1.311-13.474,6.407-26.178,8.472-39.527l-6.301,15.807c-.984,6.328-2.619,13.149-3.092,19.503-.078,1.043-.756,4.377.92,4.217ZM810.503,906.94c-4.296-24.54-13.034-48.089-21.173-71.531-3.163,4.444-4.088,10.969-3.079,16.251,2.917,15.278,15.151,35.193,18.403,51.255,1.261,2.171,2.986,4.483,5.848,4.026ZM730.476,872.113c.859-.787,5.113-13.632,5.654-15.994l-7.135,14.041c-1.206,1.326.311,3.026,1.482,1.953ZM754.025,860.83c-1.59-1.63-1.985,1.265-2.337,1.853-2.382,3.979-5.531,8.568-6.125,13.199,2.539-.336,9.076-14.423,8.462-15.052ZM768.14,863.649c-2.696-.514-1.511.739-2.128,2.057-1.48,3.164-2.935,6.563-2.569,10.171,2.4.423,1.695-.372,2.303-1.879,1.181-2.925,2.186-7.161,2.394-10.349ZM784.145,905.059c-1.164-3.833-5.288-31.024-7.998-31.041-3.03,2.033-2.645,6.032-4.361,8.799-3.352,5.406-9.429,2.65-14.412,3.474-3.216.531-6.474,2.398-10.426,2.754-5.245.473-24.556.397-28.601-1.49-2.275-1.062-5.193-4.271-7.154-6.007-1.32.004-5.811,15.196-6.081,17.452-.229,1.91-.001,1.173,1.36,1.351,2.687.352,5.705-.116,8.496.937l69.176,3.77ZM513.975,893.763l-1.859.456,5.541,31.941c-2.608,12.846-8.603,24.81-11.228,37.491l-29.161,21.418c2.598.216,4.918-.685,7.225-1.708,3.309-1.468,26.43-15.916,27.411-17.773l11.501-36.507-9.431-35.317ZM696.368,911.894c-1.411-1.358-6.409-1.701-8.233-.716,2.953,4.623,5.551,9.406,8.64,13.952,7.155,10.531,17.656,22.177,28.154,29.269,4.735,3.199,10.499,6.206,15.917,8.078l-22.17-16.887c-5.688-9.018-13.64-16.977-19.171-26.214-.98-1.636-1.797-6.193-3.137-7.482ZM476.337,961.545c9.599-7.148,14.766-22.512,12.944-34.133-.76-4.845-4.566-8.881-4.491-13.871-1.404.431-1.764,4.86-1.861,6.127-.487,6.362.622,13.374-.113,19.654-.891,7.611-5.745,14.542-6.478,22.223ZM829.101,917.529c-1.743-.738-6.644-2.241-7.253.311-.323,1.352,5.927,12.956,5.429,16.662l-16.761,35.514c6.814-6.248,16.471-14.03,18.469-23.527.269-1.278.317-2.254-.572-3.317l1.852-.457,33.905,113.91,4.64-1.008-39.708-138.089ZM687.171,932.371c-.119-.099-1.981-.338-1.847.444l10.334,119.104,9.42-.006c-2.608-21.113-4.65-42.358-7.646-63.428-2.027-14.253-4.02-28.999-6.773-43.118-.49-2.511-2.048-11.809-3.488-12.996ZM472.561,958.73c-4.93.883-9.219,5.146-9.408,10.341,1.212,1.352,9.869-8.064,9.408-10.341ZM789.326,967.193c-5.037-.663-12.497,0-17.886,0-.29,0-1.328-1.299-2.347-.938l3.892,14.925,20.578,1.07-.887-13.53c-.115-.415-2.889-1.466-3.35-1.527ZM808.627,1172.406l-6.578-62.614c-9.929-4.998-23.353-7.632-34.438-6.178-1.754.23-1.247,1.788-1.994,1.953-2.426.537-4.716-.846-7.092-.679-2.694.19-21.529,3.451-22.269,4.567l-5.77,58.242,78.14,4.708Z"/>
      <path class="o" d="M891.314,421.243c-8.749-3.337-15.921-1.675-24.469.961l14.158,5.124,2.777,3.332c-7.801.727-17.408,6.425-24.031.037-1.464-1.412-6.122-9.166-6.091-10.897.049-2.722,10.53-5.507,12.936-5.853,8.928-1.283,19.726-1.416,24.72,7.297Z"/>
      <path class="o" d="M279.576,785.909c-17.527-14.495-21.573-38.713-23.515-60.246,15.289,17.472,22.638,36.961,23.515,60.246Z"/>
      <path class="o" d="M.694,69.121l173.223,195.316c-7.793,6.251-18.472,16.659-21.876,26.161-.778,2.172-.037,6.929-2.124,6.316L.694,160.432c.008-30.421-.013-60.889,0-91.311Z"/>
      <path class="o" d="M620.694,180.873c-.231.425-4.006,2.009-4.492,3.493,9.088-.623,18.267-6.128,27.773-7.057,9.21-.899,19.896.017,28.696,2.828l-28.578,3.88-4.357,1.746c11.811,2.477,28.615,9.233,37.594,17.48,6.289,5.777,12.38,17.997,16.979,25.372-.705.576-2.243-.741-2.827-1.201-14.281-11.249-18.882-22.408-38.341-29.164-16.528-5.739-35.694-8.368-52.946-4.956l11.356-11.676,8.898-4.303c.898.398.613,2.881.245,3.557Z"/>
      <path class="o" d="M649.086,318.214c-3.339-.283-6.475-3.504-9.382-4.259-1.405-.365-13.656-.629-15.472-.436-2.745.292-8.172,3.413-10.918,4.694-.856-.586-2.766-.62-2.899-1.51-.787-5.253,9.172-14.023,14.621-14.539,13.728-1.3,20.856,3.186,27.792,14.643-.732,1.735-3.254,1.084-3.743,1.406Z"/>
      <path class="o" d="M244.755,321.799c-.723-.554-3.256-.442-3.634-2.481,3.277-16.583,27.702-19.439,37.903-8.725.566.595,5.076,6.607,5.232,7.016.552,1.45-2.616,2.482-3.729,3.249-2.185-.826-4.301-2.57-6.51-3.186-4.113-1.147-17.023-1.295-21.063-.383-3.085.696-4.701,4.489-8.198,4.51Z"/>
    </g>
  </g>
  <g id="g" data-name="Layer 4">
    <g id="h" data-name="face1">
      <path class="q" d="M199.067,313.709c-.115-.356-.283-.692-.587-.91l-2.032-1.459s-1.876-1.219-1.06-4.072c0,0,.706-3.496,2.799-4.79.919-.568,1.952-.787,2.849-.773,1.231.019,2.416.436,3.441,1.119,1.199.799,2.902,2.249,3.904,4.193,1.687,3.273-.178,5.873-.178,5.873,0,0-.879,1.948-4.888,2.042-2.694.063-3.565-.465-3.565-.465,0,0-.515-.239-.683-.759Z"/>
      <path class="q" d="M337.647,294.673c1.424,3.002,2.922,8.513-.906,14.562,0,0-4.385,6.68-8.08,2.311-1.941-2.296-1.435-5.267-.15-7.481,1.161-2,2.295-3.14,2.341-4.777.057-2.018.466-3.511,3.105-5.486,1.232-.922,3.03-.52,3.69.871Z"/>
      <path class="q" d="M315.356,344.426c-1.664,4.269-3.249,8.647-4.268,13.137-4.486,19.755-9.862,42.238-13.341,61.967-1.796,10.183-2.694,19.936-2.15,30.317,4.929-3.081,3.12-11.002,7.512-14.12.554,16.989,3.028,33.933.485,50.828-13.829-23.117-28.112-46.156-44.714-67.306.941-1.532,2.081.314,2.827.938,3.095,2.59,5.355,5.951,7.998,8.945.722.146.576-.865.448-1.384-1.25-5.061-15.372-23.04-14.925-25.315,3.834-3.369,7.732-6.74,11.647-10.009,13.516-11.287,26.815-23.431,37.644-37.664l10.836-10.335Z"/>
      <path class="q" d="M306.878,236.173c.253,1.541-1.268.881-2.329.932-8.328.396-15.129.787-23.283,3.09-9.826,2.775-15.114,10.149-25.19,6.762-11.607-3.902-18.522-10.321-32.604-10.701-2.612-.071-5.235,1.351-8.393.858-1.483-.231-1.427.57-1.421-1.425.041-13.308,10.622-26.372,20.824-33.805,10.975-7.995,15.42.268,25.086,2.049,6.51,1.199,12.779-.704,19.405,3.187,6.826,4.008,9.722,16.75,14.667,22.046,2.738,2.933,9.508,5.19,13.237,7.007Z"/>
      <path class="q" d="M314.394,239.531c1.194-.342,2.231-1.348,3.765-.932-1.727,2.917-.303,7.623-1.882,10.346l-.763-.623-1.12-8.79Z"/>
      <path class="q" d="M205.223,273.495c5.704,2.59,12.152,8.174,18.408,9.352,3.466.653,13.495,1.157,16.641-.009.465-.172,3.661-4.525,5.419-2.754.938.945-3.738,11.261,1.181,13.423,1.228.54,2.658.355,3.763.762.84.309.755,1.819,1.14,1.773,3.406-.403,7.42-2.614,7.902-6.313.371-2.847-5.418-6.39-5.588-12.946-.069-2.672,1.988-14.462,2.924-16.922,1.183-3.11,5.348-5.428,8.036-3.403,2.049,1.544,6.444,12.852,9.051,16.4,6.82,9.282,13.52,10.248,24.773,9.094,10.629-1.09,16.177-6.704,21.096-15.617l4.792-13.548c4.234,19.872,2.957,41.505-1.209,61.375-2.417,11.526-4.509,16.468-13.4,24.254-17.186,15.05-45.274,24.328-66.988,14.329-33.883-15.602-26.181-49.97-37.94-79.249ZM262.639,283.849c-2.071,6.894,10.727,11.092,9.251,3.513-.95-4.879-5.375-3.421-9.251-3.513ZM244.755,321.499c12.542,9.612,23.584,7.444,35.771-.941,1.114-.766,4.281-1.798,3.729-3.249-.156-.409-4.665-6.421-5.232-7.016-10.2-10.714-34.626-7.858-37.903,8.725.378,2.039,2.911,1.927,3.634,2.481Z"/>
    </g>
    <g id="i" data-name="face2">
      <path class="q" d="M602.468,174.974c12.493-12.004,16.763-18.857,36.25-19.752,28.298-1.3,41.851,8.412,59.768,28.224,5.122,5.664,11.109,13.25,15.062,19.768,9.07,14.956,9.936,37.529,5.911,54.391-.516,2.161-3.005,6.65-3.087,7.738-7.548-7.194-12.693-16.359-15.532-26.358-15.789-3.853-38.913-8.032-54.4-1.684-5.997,2.458-6.31,6.068-14.36,5.502-5.48-.385-9.575-4.429-14.573-6.149-13.733-4.727-29.134-1.274-43.307-1.879-1.509-1.11-.352-1.501.228-2.643,5.444-10.716,12.402-18.513,19.568-27.968-8.053,1.053-15.989,8.158-20.491,14.764-.573.841.151,1.743-2.096,1.224.379-7.084-3.058-17.93.531-24.405.769-1.387,10.694-10.044,12.506-11.027,4.516-2.45,8.925-2.044,12.328-3.676,2.145-1.028,4-4.444,5.694-6.072ZM619.202,182.311c.368-.676.653-3.159-.245-3.557l-8.898,4.303-11.356,11.676c17.252-3.413,36.417-.784,52.946,4.956,19.459,6.757,24.06,17.915,38.341,29.164.584.46,2.122,1.777,2.827,1.201-4.599-7.375-10.69-19.595-16.979-25.372-8.979-8.247-25.783-15.003-37.594-17.48l4.357-1.746,28.578-3.88c-8.8-2.811-19.486-3.727-28.696-2.828-9.506.928-18.685,6.433-27.773,7.057.486-1.484,4.261-3.068,4.492-3.493Z"/>
      <path class="q" d="M572.837,249.734c2.023,4.701,2.453,12.839,4.98,18.083,5.631,11.684,17.86,12.283,29.427,11.146,4.567-.449,7.657-2.876,11.71-4.754.841,4.167-4.211,8.579-3.593,12.508,1.365,8.684,19.051,6.984,12.912-2.528-2.134-3.307-4.821-1.585-4.673-8.565.045-2.139,4.118-18.806,4.984-20.507,1.257-2.47,5.814-3.678,7.825-1.643,1.112,1.125,2.5,9.232,3.842,12.155,5.958,12.978,16.65,15.428,30.049,14.261,10.612-.924,15.566-6.749,19.758-16.014,2.046-4.522,2.186-9.717,5.145-13.202l2.845,29.175,5.289-6.459c1.827-1.29,3.746-1.292,5.772-.446,3.962,1.654,1.52,20.567.522,24.626-1.254,5.103-10.018,19.583-16.32,15.729-1.603-.98-.973-4.085-2.796-4.257-1.031,9.445-10.47,22.78-17.449,29.152-20.124,18.375-50.307,22.315-72,4.273-16.764-13.943-14.075-24.802-19.29-43.78-3.838-13.967-9.32-23.281-9.88-38.6-.115-3.148-.69-7.95.941-10.355ZM694.275,305.268c10.287-4.109,9.222-12.412,11.559-20.908.654-2.378,2.474-3.972,2.547-6.386-9.112,6.797-11.739,16.724-14.107,27.294ZM634.645,282.825c-4.207,1.357.847,6.614,3.827,7.233,7.467,1.551,3.785-9.688-3.827-7.233ZM649.086,318.452c.489-.322,3.01.329,3.743-1.406-6.936-11.457-14.064-15.943-27.792-14.643-5.449.516-15.408,9.286-14.621,14.539.133.89,2.044.924,2.899,1.51,11.109,7.606,21.781,8.977,33.874,2.296,1.07-.591,1.546-2.065,1.897-2.296Z"/>
      <path class="q" d="M667.431,444.195c1.417-.004,1.757-2.84,2.122-3.981,1.059-3.309,1.629-6.796,2.587-10.127l2.736,7.13c1.402,12.97-1.92,25.172-1.91,37.948-5.653,2.389-11.015.215-16.332.061-5.607-.162-23.146.602-27.236-1.946-1.593-.992-14.724-24.824-15.62-27.687-.151-.482-.258-1.536.452-1.389l8.481,7.521c.709.147.607-.913.453-1.39-2.435-7.566-11.594-19.933-15.539-27.768-3.704-7.357-6.489-15.113-9.865-22.602,5.664.026,12.542-2.917,17.869-5.203,26.086-11.194,46.11-34.682,64.961-55.052l-9.306,53.284c-1.457,17.057-4.498,34.023-3.854,51.2Z"/>
      <path class="q" d="M677.427,244.126c-.281-.47-2.617-1.538-2.475-3.135l7.52-1.895c.412.561-.845,8.465-1.387,9.429-1.508,2.684-3.149-3.547-3.659-4.399Z"/>
    </g>
    <g id="j" data-name="body1">
      <g id="k" data-name="body1">
        <path class="q" d="M342.172,1052.922c3.648-98.695,10.654-198.641,6.17-297.646-1.038-22.925-5.6-49.39-5.608-71.618-.001-3.7,2.939-7.928,2.79-12.099-.107-3.005-2.244-6.518-2.632-9.688-1.191-9.748,12.017-32.316,17.619-41.201,9.837-15.603,22.307-29.339,29.698-46.549l.921,3.746c9.895-15.799,18.246-33.134,21.195-51.764l1.86,10.342c11.537-28.083,19.05-58.864,15.083-89.421,8.001,1.601,10.418,8.625,13.184,15.517,14.431,35.956,19.963,87.594,26.186,126.312,13.77,85.677,36.218,168.475,45.346,254.944.885,8.386,4.692,26.132,2.397,33.472-1.184,3.787-9.727,8.332-8.841,2.501.483-3.176,6.043-5.189,4.121-8.21-.816-1.283-8.457-5.071-10.341-5.685-2.032-.662-10.694-2.775-12.286-2.775h-24.946c2.443-24.215.122-48.231-6.585-71.537,1.533-1.655,10.42,10.391,11.453,11.601.703.824,1.839,3.053,1.696.192l-16.917-77.684c9.614,1.732,19.463,5.172,29.176,5.174l-34.82-33.418c7.045.915,14.064,1.549,21.055,2.939,3.885.773,7.845,2.587,11.607,3.462,1.408.327,2.522.765,2.154-1.216-4.902-5.414-8.748-12.017-13.74-17.329-2.948-3.137-15.496-12.385-16.184-15.854,1.734-17.662,2.388-35.675,1.731-53.472-1.249-33.841-4.937-68.826-17.191-100.477-.361-.933-1.129-3.701-2.595-3.044,1.127,1.266.95,3.095.964,4.675.329,36.692,1.085,66.729-12.782,101.208-6.166,15.331-24.557,47.104-24.012,61.725.455,12.199,9.968,29.404,14.174,41.366,22.631,64.361,27.814,107.321,31.951,175.146,5.55,91.002,11.249,182.065,18.871,272.947.67,7.984,2.115,16.023,2.82,24.005-1.696.109-3.472-.219-5.168.013-19.936,2.727-40.054,5.825-60.218,6.62-23.79.938-47.366-1.717-71.115-1.917,1.718-30.649,5.237-61.194,7.525-91.796"/>
        <path class="q" d="M272.044,704.951c.793,3.439,6.163,9.781,8.909,12.284,5.648,5.147,12.3,5.346,19.074,2.041,1.912-.933,3.182-3.343,4.692-3.781,2.579-.748,5.469-.221,9.012-1.343,6.865-2.174,10.411-8.558,17.634-7.322.435,11.461,2.113,22.939,2.81,34.374,4.361,71.538,2.246,150.956-5.643,222.144-8.683,78.35-26.064,155.461-39.538,232.987l-96.362-10.473-58.957-11.185c21.832-70.665,46.921-140.237,70.763-210.223l1.403-1.422,28.878-8.776,1.438-1.386c-.59-6.881.869-13.973,1.109-20.543,1.598-43.877-4.721-86.779-6.619-130.411,1.685-.282,2.666,6.725,4.688,4.703.677-.677,3.996-16.211,4.46-18.613,1.172-6.075,2.764-15.39,3.07-21.405.932-18.294-8.085-38.659-10.353-56.93,4.268-2.072,7.601.549,11.783.92,9.747.865,18.961-1.852,27.751-5.641ZM279.576,785.909c-.876-23.285-8.225-42.774-23.515-60.246,1.941,21.533,5.988,45.751,23.515,60.246Z"/>
        <path class="q" d="M160.975,381.129c4.968,2.66,8.32,9.596,12.222,12.724.95.762,1.239,1.792,2.835,1.392-2.393-10.207-.634-19.527,2.839-29.171l5.481,11.918,4.854,5.962c-.052-6.28-2.509-12.789.476-18.822,7.581,8.422,19.66,10.632,27.774,17.872-2.435-.259-4.498-.872-7.026-.975-1.032-.042-3.577-.587-3.321.972,3.196-.275,3.873,2.654,5.42,3.787,6.161,4.512,13.687,7.826,19.044,13.644l-7.507-1.897c9.361,9.243,18.793,18.343,26.334,29.196-2.026,1.4-4.634-.52-6.538-1.006-.92-.235-2.163-1.128-1.921.52,1.084-.13,1.544.459,2.186,1.178,12.972,14.53,25.472,28.084,37.335,43.559l-.457,1.394c-4.035-2.663-10.478-6.402-15.128-7.473-5.317-1.225,3.93,5.782,4.235,6.129,9.091,10.354,24.516,23.514,30.976,34.918,6.003,10.599-1.208,3.718-4.848,2.025-.841-.391-10.465-4.527-9.113-1.247,11.261,11.294,21.476,23.644,29.161,37.685.236,1.446.038,1.62-1.406,1.41-2.629-.381-5.877-3.624-8.471-4.717-1.867-.585,3.966,7.961,4.404,8.775,6.019,11.212,11.292,22.097,14.434,34.516,5.577,22.045,6.095,45.134,6.105,67.781-.556.751-14.988-9.575-15.585-10.292-4.193-5.033-10.34-20.877-15.079-28.223-19.389-30.063-42.37-46.219-68.671-68.813-1.076-.924-3.701-.873-1.869-2.792,5.534.907,10.817,5.063,16.488,3.282l-42.348-28.734v-1.864s10.779,1.921,10.779,1.921l9.916-.969c-8.573-4.387-17.454-9.183-25.699-14.313-7.416-4.614-15.811-9.032-21.361-15.813,4.832-.034,9.796,1.594,14.557,1.91,1.008.067,4.442.65,4.263-.967l-44.229-29.206c-.215-1.749,1.918-.742,2.864-.513,7.013,1.699,14.205,5.444,21.603,6.163-5.691-7.208-14.567-11.629-20.733-18.323-1.43-1.552-9.028-11.07-5.133-11.795,5.509,2.331,11.373,4.206,17.395,4.701-7.103-9.307-15.18-17.532-16.863-29.736-.763-5.532,5.912.751,7.763,1.662,1.611.793,3.52,1.605,5.33,1.721.998-1.048-3.76-12.72-3.76-14.587v-16.474ZM286.415,505.367c0-.642-.52-1.163-1.163-1.163s-1.163.52-1.163,1.163.52,1.163,1.163,1.163,1.163-.52,1.163-1.163Z"/>
        <path class="q" d="M280.997,636.234c-10.051,1.358-22.366,9.808-31.515,14.12-7.159-16.525-21.316-29.761-33.9-42.36,3.611,10.331,8.713,20.236,12.218,30.605.43,1.271,1.96,2.704-.448,2.335-9.889-11.226-20.175-22.57-29.639-34.378-18.974-23.671-32.715-49.501-50.492-72.825-.861-1.13-3.118-5.063-4.589-4.805-2.273.398-.543,2.297-.315,3.107,2.462,8.757,5.679,17.76,7.108,26.794,3.857,24.388-7.053,47.661-12.939,70.822-16.364-6.795-31.472-9.256-48.505-2.866-1.446.542-11.266,5.238-11.725,5.701-1.323,1.335.067,1.715,1.392,1.871,17.369,2.047,34.636,4.437,51.659,8.435,1.088.258.688,3.608.561,3.748-.35.383-7.586,1.557-10.012,2.705-5.848,2.768-15.955,11.561-20.066,16.647-1.381,1.708-2.338,5.286-3.283,6.13-3.162,2.823-20.854-.318-25.896-.48,5.374-5.893,10.025-12.546,15.973-17.916,2.891-2.61,7.305-3.266,8.498-7.966-17.254.555-33.351,7.376-49.891,11.277l14.821-22.347c13.934-17.167,26.852-33.397,37.444-52.931,3.185-5.875,11.255-20.259,12.67-25.93.129-.517.273-1.53-.448-1.385-1.724,2.87-5.199,4.83-7.137,6.979-8.14,9.025-14.578,21.019-24.395,29.266-.745.626-1.886,2.468-2.825.94,15.754-27.012,29.551-55.288,43.703-83.211-2.304-16.625-7.494-32.762-12.633-48.69-.051-2.156,5.263-9.749,7.039-9.788,1.069,5.136,5.122,9.17,7.105,13.623,4.33,9.723,5.871,20.348,9.603,29.934,4.902,12.596,18.113,21.561,27.558,30.811,1.938.401,1.6-.921,1.352-2.29-.645-3.555-3.794-7.006-3.252-10.876l41.905,43.289c1.655.241.746-.996.514-1.915-.833-3.304-2.821-6.954-2.882-10.31l32.964,35.759c1.507.14,1.585.218,1.288-1.278-.588-2.958-2.65-5.965-2.246-9.065l40.947,52.251c1.465,1.289.979-.903.849-1.789-.349-2.387-1.999-4.952-1.318-7.16,3.959,3.613,13.984,19.063,17.903,20.697,1.746.728,2.25-4.487,2.279-5.327.084-2.382-.944-4.033-.414-5.957,3.378,4.374,9.165,10.285,10.816,15.546.852,2.715-1.325.452-1.398.452-4.819,0-11.515-.606-16.003,0Z"/>
        <path class="q" d="M386.065,543.2c-1.368-.214-1.281,1.628-1.602,2.624-7.266,22.545-16.098,49.006-33.225,66.297-.706.713-4.988,4.316-5.646,3.558-2.096-21.653-1.219-44.363-10.387-64.449l12.256-47.566-12.237,9.875,14.12-52.236c-5.991,4.779-7.753,12.635-13.161,17.884,3.731-17.279,7.762-35.115,7.997-52.71-1.764.644-7.867,13.281-9.885,11.285l4.696-40.465-8.959,13.182-2.327,1.866,4.694-32.94c-4.287,3.274-7.076,7.686-10.183,11.929-.846,1.155-.958,2.651-2.986,2.182,3.26-6.162,4.405-28.689,8-32.939,1.978-2.338,21.071-4.105,24.946-2.813l-3.764,4.697h20.239l6.114,1.873c-2.722.378-7.732.431-9.402,2.822,8.445,2.366,14.827,8.581,22.58,12.266.477,2.797-2.266,2.223-3.755,3.273l19.428,18.697c1.116,2.254,10.162,13.961,8.799,15.666l-7.057-4.7c-.627-.198-.686.837-.454,1.391,2.662,6.354,8.148,13.952,11.152,20.859,1.858,4.273,3.305,8.66,4.83,13.056-2.452,1.737-7.787-7.933-9.398-6.125,2.576,17.5,5.846,34.895,4.697,52.706-1.913.266-1.544.167-2.114-1.173-1.585-3.729-1.71-9.882-2.878-14.075-.27-.969-.23-2.85-1.584-2.629,1.005,14.736-1.696,28.989-4.727,43.292-1.384.082-1.659-3.382-1.759-4.343-.258-2.49-.017-4.946-.11-7.431-.042-1.138.7-3.499-.935-3.276-3.102,15.927-6.567,31.861-11.528,47.311l-4.484,9.165v-17.886Z"/>
        <path class="q" d="M221.22,660.723c-.716,5.353-6.33,2.706-8.899,2.834-3.042.152-10.822,9.255-12.707,12.007-11.983,17.487-14.436,69.93-5.226,88.7,1.506,3.07,5.729,6.773,9.296,5.576,1.19-.399,4.83-13.58,10.002-13.108.457.529-2.183,11.996-2.77,13.694-.628,1.816-5.644,11.608-6.609,12.248-1.078.715-1.614.259-2.441-.455-14.873-9.874-24.527-24.157-36.175-37.271-.349-2.159.709-1.314,2.104-1.173,2.717.274,7.98,2.652,8.237-2.091-8.853-4.515-15.972-11.617-25.403-15.091l15.051-5.162c-3.91-3.028-7.684-6.212-11.946-8.764-3.038-1.819-22.589-10.695-22.882-11.973-.556-2.427,14.242-11.203,16.001-14.102-4.868-1.489-18.399-4.43-22.866-3.092-3.584,1.073-12.99,18.611-14.947,22.702-9.556,19.977-15.643,42.587-17.72,64.65l-6.18-.922c4.969-26.549,11.939-53.993,24.844-77.846,15.726-29.066,41.543-53.547,77.134-43.856,11.487,3.128,22.592,9.259,34.104,12.495Z"/>
        <path class="q" d="M190.162,784.567l-17.885,136.495,40.529-6.222-6.605-120.232c-.519-2.271-10.245-1.43-12.275-1.571l.944-6.584c2.941,1.079,13.854,1.86,15.038,4.485l9.394,128.212-45.576,6.636c-53.288-10.773-106.605-21.554-159.506-33.988l30.032-128.877,145.91,21.646ZM183.511,791.212l-136.432-19.822-28.252,117.667,148.762,30.658,15.922-128.502Z"/>
        <path class="q" d="M328.527,672.55c-8.521-9.859-18.663-18.017-28.213-26.837,5.486,3.116,24.998,14.18,26.85,19.266.743,2.04.599,5.287,1.362,7.571Z"/>
        <path class="q" d="M315.356,685.72l-3.307-1.861-10.803-14.133c5.841,4.249,9.841,10.309,14.111,15.993Z"/>
        <path class="q" d="M295.579,698.908c-3.812-3.09-6.777-8.587-8.454-13.178,3.812,3.09,6.777,8.587,8.454,13.178Z"/>
        <path class="q" d="M513.975,895.898l9.431,35.317-11.501,36.507c-.981,1.858-24.102,16.306-27.411,17.773-2.307,1.023-4.627,1.924-7.225,1.708l29.161-21.418c2.626-12.681,8.621-24.645,11.228-37.491l-5.541-31.941,1.859-.456Z"/>
        <path class="q" d="M476.337,963.679c.734-7.681,5.588-14.612,6.478-22.223.735-6.28-.374-13.292.113-19.654.097-1.266.458-5.696,1.861-6.127-.075,4.99,3.731,9.026,4.491,13.871,1.822,11.621-3.345,26.984-12.944,34.133Z"/>
        <path class="q" d="M472.561,960.865c.46,2.277-8.196,11.693-9.408,10.341.19-5.195,4.478-9.458,9.408-10.341Z"/>
      </g>
      <path class="q" d="M298.072,1299.761s12.004-50.307,22.234-70.63l48.204-13.259,6.946,2.16-16.624,81.729h-60.76Z"/>
    </g>
    <g id="l" data-name="body2">
      <path class="q" d="M730.487,1167.698l78.14,4.708-6.578-62.614s-22.745-15.066-65.792-.336l-5.77,58.242Z"/>
      <g id="m" data-name="body2">
        <path class="q" d="M858.51,719.068c-.853.993-19.797-13.09-21.942-14.289-4.357-2.435-5.544-1.233-3.144,3.144,5.794,10.563,14.374,18.883,15.668,32.338,1.823,18.954-12.667,46.213-19.524,64.239-5.714,15.022-11.032,30.219-16.25,45.413l-17.71-48.636c-10.744-22.315-24.976-33.957-50.99-26.669,5.453-11.874,11.21-24.137,17.718-35.458,10.239-17.81,19.551-32.094,41.372-35.819,3.824-.653,7.767.314,11.498-1.215-.019-1.331-2.68-1.854-3.795-2.304-7.829-3.157-16.952-4.638-25.376-5.22-.964-.835,2.673-5.412,3.701-6.174,16.469-7.117,34.545-4.127,51.834-2.303-2.072-2.041-2.749-5.024-4.652-7.105-4.01-4.384-21.344-15.745-22.734-18.685-1.25-2.643-5.353-15.268-6.087-18.388-.716-3.043-.568-5.694,3.154-3.61.362.202.854,2.16,2.105,3.039,2.685,1.887,5.869,2.58,7.98,5.218.709.147.607-.913.453-1.389-6.152-18.977-12.138-38.012-18.34-56.973l-9.877-38.586c-2.799,30.884-10.379,60.853-16.719,91.07-5.781,27.551-9.822,55.238-19.987,81.678-7.801,20.292-29.935,51.286-32.85,69.757-.412,2.612.573,6.892-.59,8.824-.49.813-7.114,4.916-9.347,7.597-10.374,12.452-27.574,47.226-23.868,63.283.555,2.406,2.543,3.174,3.119,4.483,1.614,3.669-8.133,21.544-9.048,26.688-2.217,3.159-9.249-.674-13.09.556.018-2.092.91-3.954.981-6.07,2.604-77.562-3.659-155.861,2.067-233.27,1.231-4.665,16.966-15.067,21.436-19.042,3.918-3.483,13.664-15.28,16.929-16.96,3.3-1.698,2.473.014,3.292,2.351,6.164-5.031,11.334-9.411,16.451-15.555,2.19-2.63,10.202-15.267,11.304-15.995,5.032-3.321.717,5.081,4.711,4.251l21.677-49.881,2.337,7.519c7.996-14.71,7.871-32.668,9.898-48.941l2.825,9.403,2.578-6.349c2.385-16.325,4.096-32.667,4.456-49.2,1.9-2.039,1.103-.195,1.649.267,14.476,12.253,20.802,63.755,25.454,83.739,7.339,31.525,13.87,63.181,21.084,94.702,4.602,20.109,12.988,41.244,17.014,61.118.371,1.833,1.764,12.72,1.175,13.407Z"/>
        <path class="q" d="M543.163,786.379c1.075-9.52,7.824-27.115,11.514-36.495,8.639-21.958,25.309-43.791,18.618-68.465l29.165,29.175-15.045-71.535c7.629,7.194,15.43,14.44,22.608,22.096,12.472,13.303,36.098,38.968,40.914,56.045,3.575,12.677,2.763,30.415,2.407,43.808-1.994,75-9.846,150.416-19.005,224.804-5.87,47.671-13.119,95.164-19.644,142.743l-3.284-8.468c-17.543-76.373-37.638-152.473-48.347-230.292-2.643-19.203-3.202-38.894-6.019-58.002-.121-.82-.416-2.836-1.635-2.576-.914,4.652-2.512,9.114-3.769,13.69-.415,1.51,1.012,2.784-1.884,2.303-.456-20.468,1.176-41.277,5.642-61.174l-6.569,7.309c-.694,4.876-2.898,9.115-5.209,13.38-2.995,2.636-.459-2.032-.459-2.342,0-4.965-.534-11.276,0-16.003Z"/>
        <path class="q" d="M739.895,373.598c-3.561-1.103-6.996-2.916-10.533-4.055-.869-.28-2.86-1.503-2.63.278,12.325,8.64,26.204,16.682,33.881,30.126l-8.948-3.75c-.635-.203-.686.898-.457,1.394.513,1.112,5.068,5.796,6.408,7.717,6.34,9.09,17.225,27.05,19.925,37.502.132.513.271,1.531-.449,1.385l-4.7-4.718-5.205-3.263c6.551,16.879,11.966,34.863,11.308,53.166-2.694.512-1.513-.732-2.128-2.057-1.982-4.266-2.515-9.606-5.389-12.999,2.536,18.185.715,36.821-3.785,54.592l-1.596-4.505-1.208-8.663c-3.048,17.491-6.749,35.061-15.083,50.821l.012-9.895c.698-1.63-1.473-1.829-1.873-1.395-.558.604-4.552,12.807-5.791,15.401-4.148,8.685-9.329,16.702-14,25.071-1.692.227-.859-2.051-.698-3.049.603-3.731,2.249-7.66,2.578-11.557.087-1.026.693-3.508-.915-3.266-1.567,5.023-4.403,9.604-7.152,14.034-10.42,16.789-22.254,27.133-36.124,40.125-3.128,2.93-7.267,5.746-10.383,8.905.971-27.554-1.866-54.879-3.714-82.31,5.68-15.864,15.581-31.245,20.635-47.144.152-.48.258-1.536-.453-1.389l-8.483,6.579-.474-1.411,19.769-44.709-11.762,10.35c-.721.137-.571-.869-.477-1.413,2.577-14.754,18.662-34.63,19.774-51.792.068-1.057.332-1.616-.924-1.381l-11.299,15.991,5.629-43.297-10.336,17.885c.059-13.848-.707-27.762,1.864-41.419l-11.277,17.885,6.648-46.995c15.369,1.621,31.763,10.923,43.679,20.663,1.918,1.568,5.605,4.137,6.135,6.564Z"/>
        <path class="q" d="M784.145,911.103l-69.176-3.77c-2.79-1.053-5.809-.585-8.496-.937-1.362-.178-1.589.559-1.36-1.351.27-2.256,4.761-17.449,6.081-17.452,1.961,1.737,4.879,4.945,7.154,6.007,4.045,1.888,23.356,1.963,28.601,1.49,3.952-.356,7.21-2.223,10.426-2.754,4.983-.823,11.06,1.932,14.412-3.474,1.716-2.767,1.331-6.766,4.361-8.799,2.71.017,6.834,27.208,7.998,31.041Z"/>
        <path class="q" d="M829.101,917.529l39.708,138.089-4.64,1.008-33.905-113.91-1.852.457c.889,1.062.841,2.038.572,3.317-1.998,9.497-11.655,17.28-18.469,23.527l16.761-35.514c.498-3.706-5.752-15.31-5.429-16.662.61-2.553,5.51-1.049,7.253-.311Z"/>
        <path class="q" d="M687.171,932.846c1.44,1.187,2.998,10.485,3.488,12.996,2.753,14.119,4.747,28.865,6.773,43.118,2.996,21.069,5.039,42.315,7.646,63.428l-9.42.006-10.334-119.104c-.133-.782,1.728-.543,1.847-.444Z"/>
        <path class="q" d="M789.326,967.193c.462.061,3.235,1.112,3.35,1.527l.887,13.53-20.578-1.07-3.892-14.925c1.019-.361,2.057.938,2.347.938,5.389,0,12.849-.663,17.886,0Z"/>
        <path class="q" d="M712.596,861.757c-1.676.161-.997-3.174-.92-4.217.473-6.354,2.107-13.175,3.092-19.503l6.301-15.807c-2.065,13.349-7.161,26.053-8.472,39.527Z"/>
        <path class="q" d="M754.025,860.83c.614.629-5.924,14.716-8.462,15.052.594-4.632,3.743-9.221,6.125-13.199.352-.588.747-3.483,2.337-1.853Z"/>
        <path class="q" d="M730.476,872.113c-1.17,1.073-2.688-.627-1.482-1.953l7.135-14.041c-.541,2.362-4.794,15.207-5.654,15.994Z"/>
        <path class="q" d="M525.277,505.387l-6.605-14.576c-3.9-12.764-7.29-26.603-6.577-40.016-2.428-.676-2.255,1.964-2.548,3.535-.829,4.453-1.127,9.789-1.224,14.344-1.737-.296-1.575-1.941-1.999-3.169-5.177-14.996-.25-33.457,6.709-47.199-1.033-1.893-9.823,6.362-8.453,1.907,1.319-4.288,12.762-17.99,16.623-21.033,1.983-1.563,8.707-3.625,4.583-4.898-4.232-1.307-8.529-.488-12.743-1.381,6.111-4.969,14.071-8.241,21.652-9.894.455-2.106-.262-1.521-1.176-2.166-3.065-2.163-7.743-3.981-10.778-6.085-.823-.571-1.752.157-1.225-2.094,9.349-.205,19.652-3.32,28.226,1.878,1.301-1.334-8.489-10.543-9.404-12.228,5.149.208,14.006,1.188,18.543,3.569,1.858.975,8.106,8.068,9.676,10.092,3.412,4.398,14.118,19.981,16.013,24.47.179.424.245,1.541-.454,1.391-2.151-.691-5.494-4.296-8.001-3.295l21.635,38.617c.361,1.205-.201,1.86-1.386,1.386-2.679-1.071-7.229-6.011-10.836-5.172,1.211,1.3,2.387,2.749,3.182,4.346,1.989,3.993,4.168,8.727,6.374,12.46,4.264,7.216,16.472,22.547,18.667,29.343.154.476.256,1.537-.453,1.39l-10.364-10.346c-.904.071-.538,1.534-.285,2.166,1.241,3.099,10.06,12.499,12.823,16.36,3.727,5.207,15.582,21.256,17.105,26.202.149.484.26,1.535-.45,1.387l-15.519-8.947c10.388,14.11,21.918,26.022,29.328,42.205,17.776,38.816,14.713,82.787,14.94,124.469l-1.918,11.717c-3.739-22.901-13.376-48.157-25.549-67.91-.973-1.578-6.023-9.819-6.484-10.21-.119-.101-1.984-.351-1.878.475,1.094,2.96,2.605,11.445-1.888,8.479l-28.236-41.906c-1.637-.034-2.005-.534-1.8,1.323.561,5.092,2.881,10.633,4.169,15.627l-1.896-.938-29.174-46.134,1.41,16.48c-9.513-14.416-16.909-29.963-24.004-45.661l2.357,18.813-1.867.006-18.841-44.24v15.062Z"/>
        <path class="q" d="M768.14,863.649c-.208,3.188-1.213,7.424-2.394,10.349-.608,1.506.098,2.302-2.303,1.879-.367-3.608,1.088-7.007,2.569-10.171.617-1.318-.568-2.571,2.128-2.057Z"/>
        <path class="q" d="M696.368,911.894c1.34,1.289,2.157,5.846,3.137,7.482,5.532,9.238,13.483,17.196,19.171,26.214l22.17,16.887c-5.417-1.872-11.182-4.88-15.917-8.078-10.498-7.092-20.999-18.738-28.154-29.269-3.089-4.547-5.687-9.329-8.64-13.952,1.824-.985,6.822-.641,8.233.716Z"/>
      </g>
      <path class="q" d="M775.153,1214.282l7.24,85.479h-54.589s-3.99-37.184,9.926-65.086l37.423-20.393Z"/>
      <path class="q" d="M539.27,1299.62s11.165-31.385,20.732-45.745c.245-.367.578-.649.977-.836,3.155-1.479,18.005-8.212,30.469-9.99,0,0,5.638-1.33,4.044,4.174l-8.823,52.537-47.398-.14Z"/>
    </g>
    <path class="r" d="M194.237,793.05s12.7-.737,12.266,2.101l6.59,119.957-40.529,6.222,17.598-136.763,4.708,1.886-.633,6.597Z"/>
  </g>
</svg>